<?xml version="1.0" encoding="UTF-8" standalone="no"?>
<svg
   viewBox="0 0 327.01 284.96"
   version="1.1"
   id="svg687"
   sodipodi:docname="document_verification.svg"
   inkscape:version="1.2.1 (9c6d41e410, 2022-07-14)"
   xmlns:inkscape="http://www.inkscape.org/namespaces/inkscape"
   xmlns:sodipodi="http://sodipodi.sourceforge.net/DTD/sodipodi-0.dtd"
   xmlns="http://www.w3.org/2000/svg"
   xmlns:svg="http://www.w3.org/2000/svg">
  <sodipodi:namedview
     id="namedview689"
     pagecolor="#ffffff"
     bordercolor="#666666"
     borderopacity="1.0"
     inkscape:showpageshadow="2"
     inkscape:pageopacity="0.0"
     inkscape:pagecheckerboard="0"
     inkscape:deskcolor="#d1d1d1"
     showgrid="false"
     inkscape:zoom="45.648513"
     inkscape:cx="193.52218"
     inkscape:cy="19.639194"
     inkscape:window-width="2189"
     inkscape:window-height="1269"
     inkscape:window-x="361"
     inkscape:window-y="1728"
     inkscape:window-maximized="0"
     inkscape:current-layer="Layer" />
  <defs
     id="defs4">
    <style
       id="style2">.cls-1{isolation:isolate;}.cls-2{fill:#8166ac;}.cls-3{fill:#303030;}.cls-4{fill:#f9f9f9;}.cls-5{fill:#dcdedd;}.cls-6{fill:#666;}.cls-7{fill:#404040;}.cls-8{fill:#502f8c;}.cls-9{fill:#999;}.cls-10{fill:gray;}.cls-11{fill:#ccc;}.cls-12{fill:#fff;}.cls-13{fill:#1a1a1a;}.cls-14{fill:#4d4d4d;}.cls-15{fill:#5185ff;}.cls-16{fill:#614397;}.cls-17{fill:#f2f2f2;}.cls-18{fill:#518e90;}.cls-19{fill:#333;}.cls-20{fill:#fff642;}.cls-21{fill:#fc912d;}.cls-22{fill:#fcaa2d;}.cls-23{fill:#ffe042;}.cls-24{fill:#ff6d40;}.cls-25{fill:#ababab;mix-blend-mode:multiply;}.cls-26{fill:#ffaf40;}.cls-27{fill:#ffc640;}.cls-28{fill:#fff454;}.cls-29{fill:#9276b5;}.cls-30{fill:#636363;}.cls-31{fill:#fad3aa;}.cls-32{fill:#7455a3;}.cls-33{fill:#402570;}</style>
  </defs>
  <g
     class="cls-1"
     id="g685">
    <g
       id="Layer">
      <path
         class="cls-2"
         d="M338.79,293.73l0,3.58c-.29,2.43-2.2,4.95-5.66,6.95L240.22,357.7a22.1,22.1,0,0,1-5.37,2.2c-5.4,1.56-11.55,1.46-16.08-.36a13.91,13.91,0,0,1-1.87-.87L65.57,271.27c-2.71-1.55-4-3.66-4-5.82h0l.1-5.82,3.07,2.26a17.91,17.91,0,0,1,2.55-1.81l92.87-53.44c6.92-4,17.37-4.43,23.36-1l100.73,58.16L334.77,293l.29.2Z"
         transform="translate(-61.5 -76.03)"
         id="path6" />
      <path
         class="cls-2"
         d="M338.81,292.14l-.06,5.17c-.29,2.43-2.2,4.95-5.66,6.95L240.22,357.7a22.1,22.1,0,0,1-5.37,2.2V263.83h49.33L334.77,293l.29.2Z"
         transform="translate(-61.5 -76.03)"
         id="path8" />
      <polygon
         class="cls-3"
         points="202.61 267.75 195.17 272.05 195.17 267.65 202.61 263.34 202.61 267.75"
         id="polygon10" />
      <polygon
         class="cls-4"
         points="201.78 267.29 201.78 263.83 202.61 263.34 202.61 267.75 195.17 272.05 195.17 271.12 201.78 267.29"
         id="polygon12" />
      <polygon
         class="cls-5"
         points="201.78 267.29 202.61 267.75 202.61 263.34 201.78 263.83 201.78 267.29"
         id="polygon14" />
      <polygon
         class="cls-6"
         points="201.78 267.29 198.94 266.08 195.17 268.28 195.17 271.12 201.78 267.29"
         id="polygon16" />
      <polygon
         class="cls-7"
         points="198.94 266.08 198.93 265.47 201.78 263.83 201.78 267.29 198.94 266.08"
         id="polygon18" />
      <path
         class="cls-2"
         d="M218.77,344v15.56c4.52,1.83,10.67,1.9,16.09.36V344Z"
         transform="translate(-61.5 -76.03)"
         id="path20" />
      <path
         class="cls-8"
         d="M65.56,266.45,216.9,353.83c6,3.45,16.42,3,23.33-1l66.93-38.52L333.1,299.4a12.79,12.79,0,0,0,4.82-4.48c1.84-3.23.84-6.68-3.15-9L183.44,198.56c-6-3.46-16.43-3-23.33,1L67.23,253c-.41.25-.8.49-1.18.75C60.26,257.67,59.94,263.2,65.56,266.45Z"
         transform="translate(-61.5 -76.03)"
         id="path22" />
      <polygon
         class="cls-9"
         points="114.37 245.92 49.23 208.32 89.67 184.97 154.81 222.57 114.37 245.92"
         id="polygon24" />
      <polygon
         class="cls-5"
         points="89.67 187.2 152.88 223.69 154.81 222.57 89.67 184.97 49.23 208.32 51.16 209.43 89.67 187.2"
         id="polygon26" />
      <polygon
         class="cls-10"
         points="89.67 187.2 89.67 184.97 49.23 208.32 51.16 209.43 89.67 187.2"
         id="polygon28" />
      <polygon
         class="cls-11"
         points="211.19 237.88 203.4 242.36 211.23 246.86 211.86 248.11 213.69 248.28 221.48 243.81 211.19 237.88"
         id="polygon30" />
      <polygon
         class="cls-9"
         points="211.86 246.86 201.56 240.94 209.35 236.47 219.65 242.39 211.86 246.86"
         id="polygon32" />
      <polygon
         class="cls-12"
         points="211.86 246.3 202.05 240.66 201.56 240.94 211.86 246.86 219.65 242.39 219.16 242.11 211.86 246.3"
         id="polygon34" />
      <polygon
         class="cls-13"
         points="219.65 242.39 219.65 243.64 211.86 248.11 211.86 246.86 219.65 242.39"
         id="polygon36" />
      <polygon
         class="cls-14"
         points="201.56 240.94 201.56 242.19 211.86 248.11 211.86 246.86 201.56 240.94"
         id="polygon38" />
      <polygon
         class="cls-11"
         points="197.54 229.93 189.75 234.41 197.57 238.91 198.2 240.16 200.04 240.33 207.83 235.85 197.54 229.93"
         id="polygon40" />
      <polygon
         class="cls-9"
         points="198.2 238.91 187.91 232.99 195.7 228.51 206 234.44 198.2 238.91"
         id="polygon42" />
      <polygon
         class="cls-12"
         points="198.2 238.35 188.4 232.71 187.91 232.99 198.2 238.91 206 234.44 205.51 234.15 198.2 238.35"
         id="polygon44" />
      <polygon
         class="cls-13"
         points="206 234.44 206 235.69 198.2 240.16 198.2 238.91 206 234.44"
         id="polygon46" />
      <polygon
         class="cls-14"
         points="187.91 232.99 187.91 234.24 198.2 240.16 198.2 238.91 187.91 232.99"
         id="polygon48" />
      <polygon
         class="cls-11"
         points="183.88 221.98 176.09 226.45 183.92 230.95 184.55 232.21 186.39 232.37 194.18 227.9 183.88 221.98"
         id="polygon50" />
      <polygon
         class="cls-9"
         points="184.55 230.95 174.26 225.03 182.05 220.56 192.34 226.48 184.55 230.95"
         id="polygon52" />
      <polygon
         class="cls-12"
         points="184.55 230.39 174.74 224.75 174.26 225.03 184.55 230.95 192.34 226.48 191.86 226.2 184.55 230.39"
         id="polygon54" />
      <polygon
         class="cls-13"
         points="192.34 226.48 192.34 227.73 184.55 232.21 184.55 230.95 192.34 226.48"
         id="polygon56" />
      <polygon
         class="cls-14"
         points="174.26 225.03 174.26 226.28 184.55 232.21 184.55 230.95 174.26 225.03"
         id="polygon58" />
      <polygon
         class="cls-11"
         points="100.7 173.03 92.91 177.51 100.73 182.01 101.37 183.26 103.2 183.43 110.99 178.96 100.7 173.03"
         id="polygon60" />
      <polygon
         class="cls-9"
         points="101.37 182.01 91.07 176.09 98.86 171.62 109.16 177.54 101.37 182.01"
         id="polygon62" />
      <polygon
         class="cls-12"
         points="101.37 181.45 91.56 175.81 91.07 176.09 101.37 182.01 109.16 177.54 108.67 177.26 101.37 181.45"
         id="polygon64" />
      <polygon
         class="cls-13"
         points="109.16 177.54 109.16 178.79 101.37 183.26 101.37 182.01 109.16 177.54"
         id="polygon66" />
      <polygon
         class="cls-14"
         points="91.07 176.09 91.07 177.34 101.37 183.26 101.37 182.01 91.07 176.09"
         id="polygon68" />
      <polygon
         class="cls-11"
         points="87.05 165.08 79.25 169.56 87.08 174.06 87.71 175.31 89.55 175.48 97.34 171.01 87.05 165.08"
         id="polygon70" />
      <polygon
         class="cls-9"
         points="87.71 174.06 77.42 168.14 85.21 163.66 95.5 169.59 87.71 174.06"
         id="polygon72" />
      <polygon
         class="cls-12"
         points="87.71 173.5 77.91 167.86 77.42 168.14 87.71 174.06 95.5 169.59 95.02 169.31 87.71 173.5"
         id="polygon74" />
      <polygon
         class="cls-13"
         points="95.5 169.59 95.5 170.84 87.71 175.31 87.71 174.06 95.5 169.59"
         id="polygon76" />
      <polygon
         class="cls-14"
         points="77.42 168.14 77.42 169.39 87.71 175.31 87.71 174.06 77.42 168.14"
         id="polygon78" />
      <polygon
         class="cls-11"
         points="66.6 153.25 58.8 157.72 73.43 166.11 74.06 167.36 75.9 167.53 83.69 163.05 66.6 153.25"
         id="polygon80" />
      <polygon
         class="cls-9"
         points="74.06 166.11 56.97 156.3 64.76 151.83 81.85 161.63 74.06 166.11"
         id="polygon82" />
      <polygon
         class="cls-12"
         points="74.06 165.54 57.46 156.02 56.97 156.3 74.06 166.11 81.85 161.63 81.36 161.35 74.06 165.54"
         id="polygon84" />
      <polygon
         class="cls-13"
         points="81.85 161.63 81.85 162.88 74.06 167.36 74.06 166.11 81.85 161.63"
         id="polygon86" />
      <polygon
         class="cls-14"
         points="56.97 156.3 56.97 157.55 74.06 167.36 74.06 166.11 56.97 156.3"
         id="polygon88" />
      <polygon
         class="cls-11"
         points="164.02 210.42 156.22 214.89 170.27 223 170.9 224.25 172.74 224.42 180.53 219.95 164.02 210.42"
         id="polygon90" />
      <polygon
         class="cls-9"
         points="170.9 223 154.39 213.47 162.18 209 178.69 218.53 170.9 223"
         id="polygon92" />
      <polygon
         class="cls-12"
         points="170.9 222.44 154.88 213.19 154.39 213.47 170.9 223 178.69 218.53 178.2 218.25 170.9 222.44"
         id="polygon94" />
      <polygon
         class="cls-13"
         points="178.69 218.53 178.69 219.78 170.9 224.25 170.9 223 178.69 218.53"
         id="polygon96" />
      <polygon
         class="cls-14"
         points="154.39 213.47 154.39 214.72 170.9 224.25 170.9 223 154.39 213.47"
         id="polygon98" />
      <polygon
         class="cls-11"
         points="146.91 186.21 139.12 190.68 146.94 195.18 147.58 196.44 149.41 196.6 157.21 192.13 146.91 186.21"
         id="polygon100" />
      <polygon
         class="cls-9"
         points="147.58 195.18 137.28 189.26 145.07 184.79 155.37 190.71 147.58 195.18"
         id="polygon102" />
      <polygon
         class="cls-12"
         points="147.58 194.62 137.77 188.98 137.28 189.26 147.58 195.18 155.37 190.71 154.88 190.43 147.58 194.62"
         id="polygon104" />
      <polygon
         class="cls-13"
         points="155.37 190.71 155.37 191.96 147.58 196.44 147.58 195.18 155.37 190.71"
         id="polygon106" />
      <polygon
         class="cls-14"
         points="137.28 189.26 137.28 190.51 147.58 196.44 147.58 195.18 137.28 189.26"
         id="polygon108" />
      <polygon
         class="cls-11"
         points="201.54 217.91 193.75 222.38 201.58 226.88 202.21 228.14 204.05 228.3 211.84 223.83 201.54 217.91"
         id="polygon110" />
      <polygon
         class="cls-9"
         points="202.21 226.88 191.91 220.96 199.71 216.49 210 222.41 202.21 226.88"
         id="polygon112" />
      <polygon
         class="cls-12"
         points="202.21 226.33 192.4 220.68 191.91 220.96 202.21 226.88 210 222.41 209.51 222.13 202.21 226.33"
         id="polygon114" />
      <polygon
         class="cls-13"
         points="210 222.41 210 223.66 202.21 228.14 202.21 226.88 210 222.41"
         id="polygon116" />
      <polygon
         class="cls-14"
         points="191.91 220.96 191.91 222.22 202.21 228.14 202.21 226.88 191.91 220.96"
         id="polygon118" />
      <polygon
         class="cls-11"
         points="187.89 209.95 180.1 214.43 187.93 218.93 188.56 220.18 190.39 220.35 198.18 215.88 187.89 209.95"
         id="polygon120" />
      <polygon
         class="cls-9"
         points="188.56 218.93 178.26 213.01 186.06 208.53 196.35 214.46 188.56 218.93"
         id="polygon122" />
      <polygon
         class="cls-12"
         points="188.56 218.37 178.75 212.73 178.26 213.01 188.56 218.93 196.35 214.46 195.86 214.18 188.56 218.37"
         id="polygon124" />
      <polygon
         class="cls-13"
         points="196.35 214.46 196.35 215.71 188.56 220.18 188.56 218.93 196.35 214.46"
         id="polygon126" />
      <polygon
         class="cls-14"
         points="178.26 213.01 178.26 214.26 188.56 220.18 188.56 218.93 178.26 213.01"
         id="polygon128" />
      <polygon
         class="cls-11"
         points="174.24 202 166.44 206.47 174.27 210.98 174.9 212.23 176.74 212.4 184.53 207.92 174.24 202"
         id="polygon130" />
      <polygon
         class="cls-9"
         points="174.9 210.98 164.61 205.06 172.4 200.58 182.7 206.5 174.9 210.98"
         id="polygon132" />
      <polygon
         class="cls-12"
         points="174.9 210.42 165.1 204.78 164.61 205.06 174.9 210.98 182.7 206.5 182.21 206.22 174.9 210.42"
         id="polygon134" />
      <polygon
         class="cls-13"
         points="182.7 206.5 182.7 207.76 174.9 212.23 174.9 210.98 182.7 206.5"
         id="polygon136" />
      <polygon
         class="cls-14"
         points="164.61 205.06 164.61 206.31 174.9 212.23 174.9 210.98 164.61 205.06"
         id="polygon138" />
      <polygon
         class="cls-11"
         points="160.56 194.16 152.77 198.63 160.6 203.14 161.23 204.39 163.06 204.56 170.86 200.08 160.56 194.16"
         id="polygon140" />
      <polygon
         class="cls-9"
         points="161.23 203.14 150.94 197.21 158.73 192.74 169.02 198.66 161.23 203.14"
         id="polygon142" />
      <polygon
         class="cls-12"
         points="161.23 202.58 151.42 196.93 150.94 197.21 161.23 203.14 169.02 198.66 168.53 198.38 161.23 202.58"
         id="polygon144" />
      <polygon
         class="cls-13"
         points="169.02 198.66 169.02 199.92 161.23 204.39 161.23 203.14 169.02 198.66"
         id="polygon146" />
      <polygon
         class="cls-14"
         points="150.94 197.21 150.94 198.47 161.23 204.39 161.23 203.14 150.94 197.21"
         id="polygon148" />
      <polygon
         class="cls-11"
         points="133.26 178.25 125.47 182.73 133.29 187.23 133.92 188.48 135.76 188.65 143.55 184.18 133.26 178.25"
         id="polygon150" />
      <polygon
         class="cls-9"
         points="133.92 187.23 123.63 181.31 131.42 176.83 141.72 182.76 133.92 187.23"
         id="polygon152" />
      <polygon
         class="cls-12"
         points="133.92 186.67 124.12 181.03 123.63 181.31 133.92 187.23 141.72 182.76 141.23 182.48 133.92 186.67"
         id="polygon154" />
      <polygon
         class="cls-13"
         points="141.72 182.76 141.72 184.01 133.92 188.48 133.92 187.23 141.72 182.76"
         id="polygon156" />
      <polygon
         class="cls-14"
         points="123.63 181.31 123.63 182.56 133.92 188.48 133.92 187.23 123.63 181.31"
         id="polygon158" />
      <polygon
         class="cls-11"
         points="118.7 170.19 110.9 174.66 118.73 179.17 119.36 180.42 121.2 180.59 128.99 176.11 118.7 170.19"
         id="polygon160" />
      <polygon
         class="cls-9"
         points="119.36 179.17 109.07 173.25 116.86 168.77 127.16 174.69 119.36 179.17"
         id="polygon162" />
      <polygon
         class="cls-12"
         points="119.36 178.61 109.56 172.97 109.07 173.25 119.36 179.17 127.16 174.69 126.67 174.41 119.36 178.61"
         id="polygon164" />
      <polygon
         class="cls-13"
         points="127.16 174.69 127.16 175.95 119.36 180.42 119.36 179.17 127.16 174.69"
         id="polygon166" />
      <polygon
         class="cls-14"
         points="109.07 173.25 109.07 174.5 119.36 180.42 119.36 179.17 109.07 173.25"
         id="polygon168" />
      <polygon
         class="cls-11"
         points="105.04 162.24 97.25 166.71 105.08 171.22 105.71 172.47 107.55 172.63 115.34 168.16 105.04 162.24"
         id="polygon170" />
      <polygon
         class="cls-9"
         points="105.71 171.22 95.42 165.29 103.21 160.82 113.5 166.74 105.71 171.22"
         id="polygon172" />
      <polygon
         class="cls-12"
         points="105.71 170.66 95.9 165.01 95.42 165.29 105.71 171.22 113.5 166.74 113.01 166.46 105.71 170.66"
         id="polygon174" />
      <polygon
         class="cls-13"
         points="113.5 166.74 113.5 167.99 105.71 172.47 105.71 171.22 113.5 166.74"
         id="polygon176" />
      <polygon
         class="cls-14"
         points="95.42 165.29 95.42 166.54 105.71 172.47 105.71 171.22 95.42 165.29"
         id="polygon178" />
      <polygon
         class="cls-11"
         points="91.72 154.43 83.93 158.9 91.76 163.41 92.39 164.66 94.23 164.82 102.02 160.35 91.72 154.43"
         id="polygon180" />
      <polygon
         class="cls-9"
         points="92.39 163.41 82.1 157.48 89.89 153.01 100.18 158.93 92.39 163.41"
         id="polygon182" />
      <polygon
         class="cls-12"
         points="92.39 162.84 82.58 157.2 82.1 157.48 92.39 163.41 100.18 158.93 99.7 158.65 92.39 162.84"
         id="polygon184" />
      <polygon
         class="cls-13"
         points="100.18 158.93 100.18 160.18 92.39 164.66 92.39 163.41 100.18 158.93"
         id="polygon186" />
      <polygon
         class="cls-14"
         points="82.1 157.48 82.1 158.73 92.39 164.66 92.39 163.41 82.1 157.48"
         id="polygon188" />
      <polygon
         class="cls-11"
         points="78.57 146.39 70.78 150.86 78.6 155.37 79.24 156.62 81.07 156.79 88.86 152.31 78.57 146.39"
         id="polygon190" />
      <polygon
         class="cls-9"
         points="79.24 155.37 68.94 149.44 76.73 144.97 87.03 150.89 79.24 155.37"
         id="polygon192" />
      <polygon
         class="cls-12"
         points="79.24 154.81 69.43 149.16 68.94 149.44 79.24 155.37 87.03 150.89 86.54 150.61 79.24 154.81"
         id="polygon194" />
      <polygon
         class="cls-13"
         points="87.03 150.89 87.03 152.15 79.24 156.62 79.24 155.37 87.03 150.89"
         id="polygon196" />
      <polygon
         class="cls-14"
         points="68.94 149.44 68.94 150.7 79.24 156.62 79.24 155.37 68.94 149.44"
         id="polygon198" />
      <polygon
         class="cls-11"
         points="216.86 226.66 209.07 231.13 223.11 239.24 223.74 240.49 225.57 240.66 233.37 236.19 216.86 226.66"
         id="polygon200" />
      <polygon
         class="cls-9"
         points="223.74 239.24 207.23 229.71 215.02 225.24 231.53 234.77 223.74 239.24"
         id="polygon202" />
      <polygon
         class="cls-12"
         points="223.74 238.68 207.72 229.43 207.23 229.71 223.74 239.24 231.53 234.77 231.05 234.49 223.74 238.68"
         id="polygon204" />
      <polygon
         class="cls-13"
         points="231.53 234.77 231.53 236.02 223.74 240.49 223.74 239.24 231.53 234.77"
         id="polygon206" />
      <polygon
         class="cls-14"
         points="207.23 229.71 207.23 230.96 223.74 240.49 223.74 239.24 207.23 229.71"
         id="polygon208" />
      <polygon
         class="cls-11"
         points="158.4 179.01 150.61 183.48 158.44 187.99 159.07 189.24 160.9 189.41 168.69 184.93 158.4 179.01"
         id="polygon210" />
      <polygon
         class="cls-9"
         points="159.07 187.99 148.77 182.06 156.56 177.59 166.86 183.51 159.07 187.99"
         id="polygon212" />
      <polygon
         class="cls-12"
         points="159.07 187.43 149.26 181.78 148.77 182.06 159.07 187.99 166.86 183.51 166.37 183.23 159.07 187.43"
         id="polygon214" />
      <polygon
         class="cls-13"
         points="166.86 183.51 166.86 184.77 159.07 189.24 159.07 187.99 166.86 183.51"
         id="polygon216" />
      <polygon
         class="cls-14"
         points="148.77 182.06 148.77 183.32 159.07 189.24 159.07 187.99 148.77 182.06"
         id="polygon218" />
      <polygon
         class="cls-11"
         points="212.2 210.42 204.4 214.89 212.23 219.39 212.86 220.65 214.7 220.81 222.49 216.34 212.2 210.42"
         id="polygon220" />
      <polygon
         class="cls-9"
         points="212.86 219.39 202.57 213.47 210.36 209 220.66 214.92 212.86 219.39"
         id="polygon222" />
      <polygon
         class="cls-12"
         points="212.86 218.83 203.06 213.19 202.57 213.47 212.86 219.39 220.66 214.92 220.17 214.64 212.86 218.83"
         id="polygon224" />
      <polygon
         class="cls-13"
         points="220.66 214.92 220.66 216.17 212.86 220.65 212.86 219.39 220.66 214.92"
         id="polygon226" />
      <polygon
         class="cls-14"
         points="202.57 213.47 202.57 214.72 212.86 220.65 212.86 219.39 202.57 213.47"
         id="polygon228" />
      <polygon
         class="cls-11"
         points="225.12 217.92 217.33 222.4 225.16 226.9 225.79 228.15 227.62 228.32 235.42 223.85 225.12 217.92"
         id="polygon230" />
      <polygon
         class="cls-9"
         points="225.79 226.9 215.49 220.98 223.28 216.5 233.58 222.43 225.79 226.9"
         id="polygon232" />
      <polygon
         class="cls-12"
         points="225.79 226.34 215.98 220.7 215.49 220.98 225.79 226.9 233.58 222.43 233.09 222.15 225.79 226.34"
         id="polygon234" />
      <polygon
         class="cls-13"
         points="233.58 222.43 233.58 223.68 225.79 228.15 225.79 226.9 233.58 222.43"
         id="polygon236" />
      <polygon
         class="cls-14"
         points="215.49 220.98 215.49 222.23 225.79 228.15 225.79 226.9 215.49 220.98"
         id="polygon238" />
      <polygon
         class="cls-11"
         points="199.02 202.77 191.23 207.25 199.05 211.75 199.69 213 201.52 213.17 209.31 208.7 199.02 202.77"
         id="polygon240" />
      <polygon
         class="cls-9"
         points="199.69 211.75 189.39 205.83 197.18 201.35 207.48 207.28 199.69 211.75"
         id="polygon242" />
      <polygon
         class="cls-12"
         points="199.69 211.19 189.88 205.55 189.39 205.83 199.69 211.75 207.48 207.28 206.99 207 199.69 211.19"
         id="polygon244" />
      <polygon
         class="cls-13"
         points="207.48 207.28 207.48 208.53 199.69 213 199.69 211.75 207.48 207.28"
         id="polygon246" />
      <polygon
         class="cls-14"
         points="189.39 205.83 189.39 207.08 199.69 213 199.69 211.75 189.39 205.83"
         id="polygon248" />
      <polygon
         class="cls-11"
         points="185.72 194.81 177.94 199.28 185.76 203.78 186.39 205.03 188.23 205.2 196.02 200.73 185.72 194.81"
         id="polygon250" />
      <polygon
         class="cls-9"
         points="186.39 203.78 176.1 197.86 183.89 193.39 194.18 199.31 186.39 203.78"
         id="polygon252" />
      <polygon
         class="cls-12"
         points="186.39 203.22 176.59 197.58 176.1 197.86 186.39 203.78 194.18 199.31 193.7 199.03 186.39 203.22"
         id="polygon254" />
      <polygon
         class="cls-13"
         points="194.18 199.31 194.18 200.56 186.39 205.03 186.39 203.78 194.18 199.31"
         id="polygon256" />
      <polygon
         class="cls-14"
         points="176.1 197.86 176.1 199.11 186.39 205.03 186.39 203.78 176.1 197.86"
         id="polygon258" />
      <polygon
         class="cls-11"
         points="172.05 186.96 164.26 191.44 172.09 195.94 172.72 197.19 174.56 197.36 182.35 192.89 172.05 186.96"
         id="polygon260" />
      <polygon
         class="cls-9"
         points="172.72 195.94 162.42 190.02 170.22 185.54 180.51 191.47 172.72 195.94"
         id="polygon262" />
      <polygon
         class="cls-12"
         points="172.72 195.38 162.91 189.74 162.42 190.02 172.72 195.94 180.51 191.47 180.02 191.19 172.72 195.38"
         id="polygon264" />
      <polygon
         class="cls-13"
         points="180.51 191.47 180.51 192.72 172.72 197.19 172.72 195.94 180.51 191.47"
         id="polygon266" />
      <polygon
         class="cls-14"
         points="162.42 190.02 162.42 191.27 172.72 197.19 172.72 195.94 162.42 190.02"
         id="polygon268" />
      <polygon
         class="cls-11"
         points="144.75 171.06 136.96 175.53 144.78 180.03 145.41 181.29 147.25 181.45 155.04 176.98 144.75 171.06"
         id="polygon270" />
      <polygon
         class="cls-9"
         points="145.41 180.03 135.12 174.11 142.91 169.64 153.21 175.56 145.41 180.03"
         id="polygon272" />
      <polygon
         class="cls-12"
         points="145.41 179.47 135.61 173.83 135.12 174.11 145.41 180.03 153.21 175.56 152.72 175.28 145.41 179.47"
         id="polygon274" />
      <polygon
         class="cls-13"
         points="153.21 175.56 153.21 176.81 145.41 181.29 145.41 180.03 153.21 175.56"
         id="polygon276" />
      <polygon
         class="cls-14"
         points="135.12 174.11 135.12 175.36 145.41 181.29 145.41 180.03 135.12 174.11"
         id="polygon278" />
      <polygon
         class="cls-11"
         points="130.18 163 122.39 167.47 130.22 171.97 130.85 173.22 132.69 173.39 140.48 168.92 130.18 163"
         id="polygon280" />
      <polygon
         class="cls-9"
         points="130.85 171.97 120.56 166.05 128.35 161.58 138.65 167.5 130.85 171.97"
         id="polygon282" />
      <polygon
         class="cls-12"
         points="130.85 171.41 121.05 165.77 120.56 166.05 130.85 171.97 138.65 167.5 138.16 167.22 130.85 171.41"
         id="polygon284" />
      <polygon
         class="cls-13"
         points="138.65 167.5 138.65 168.75 130.85 173.22 130.85 171.97 138.65 167.5"
         id="polygon286" />
      <polygon
         class="cls-14"
         points="120.56 166.05 120.56 167.3 130.85 173.22 130.85 171.97 120.56 166.05"
         id="polygon288" />
      <polygon
         class="cls-11"
         points="116.53 155.04 108.74 159.52 116.57 164.02 117.2 165.27 119.03 165.44 126.83 160.97 116.53 155.04"
         id="polygon290" />
      <polygon
         class="cls-9"
         points="117.2 164.02 106.9 158.1 114.7 153.62 124.99 159.55 117.2 164.02"
         id="polygon292" />
      <polygon
         class="cls-12"
         points="117.2 163.46 107.39 157.82 106.9 158.1 117.2 164.02 124.99 159.55 124.5 159.26 117.2 163.46"
         id="polygon294" />
      <polygon
         class="cls-13"
         points="124.99 159.55 124.99 160.8 117.2 165.27 117.2 164.02 124.99 159.55"
         id="polygon296" />
      <polygon
         class="cls-14"
         points="106.9 158.1 106.9 159.35 117.2 165.27 117.2 164.02 106.9 158.1"
         id="polygon298" />
      <polygon
         class="cls-11"
         points="103.21 147.23 95.42 151.7 103.25 156.21 103.88 157.46 105.72 157.63 113.51 153.15 103.21 147.23"
         id="polygon300" />
      <polygon
         class="cls-9"
         points="103.88 156.21 93.58 150.28 101.38 145.81 111.67 151.74 103.88 156.21"
         id="polygon302" />
      <polygon
         class="cls-12"
         points="103.88 155.65 94.07 150 93.58 150.28 103.88 156.21 111.67 151.74 111.19 151.46 103.88 155.65"
         id="polygon304" />
      <polygon
         class="cls-13"
         points="111.67 151.74 111.67 152.99 103.88 157.46 103.88 156.21 111.67 151.74"
         id="polygon306" />
      <polygon
         class="cls-14"
         points="93.58 150.28 93.58 151.54 103.88 157.46 103.88 156.21 93.58 150.28"
         id="polygon308" />
      <polygon
         class="cls-11"
         points="90.06 139.19 82.27 143.67 90.09 148.17 90.72 149.42 92.56 149.59 100.35 145.12 90.06 139.19"
         id="polygon310" />
      <polygon
         class="cls-9"
         points="90.72 148.17 80.43 142.25 88.22 137.78 98.52 143.7 90.72 148.17"
         id="polygon312" />
      <polygon
         class="cls-12"
         points="90.72 147.61 80.92 141.97 80.43 142.25 90.72 148.17 98.52 143.7 98.03 143.42 90.72 147.61"
         id="polygon314" />
      <polygon
         class="cls-13"
         points="98.52 143.7 98.52 144.95 90.72 149.42 90.72 148.17 98.52 143.7"
         id="polygon316" />
      <polygon
         class="cls-14"
         points="80.43 142.25 80.43 143.5 90.72 149.42 90.72 148.17 80.43 142.25"
         id="polygon318" />
      <polygon
         class="cls-11"
         points="222.65 203.44 214.86 207.91 222.68 212.41 223.32 213.67 225.15 213.83 232.94 209.36 222.65 203.44"
         id="polygon320" />
      <polygon
         class="cls-9"
         points="223.32 212.41 213.02 206.49 220.81 202.02 231.11 207.94 223.32 212.41"
         id="polygon322" />
      <polygon
         class="cls-12"
         points="223.32 211.85 213.51 206.21 213.02 206.49 223.32 212.41 231.11 207.94 230.62 207.66 223.32 211.85"
         id="polygon324" />
      <polygon
         class="cls-13"
         points="231.11 207.94 231.11 209.19 223.32 213.67 223.32 212.41 231.11 207.94"
         id="polygon326" />
      <polygon
         class="cls-14"
         points="213.02 206.49 213.02 207.74 223.32 213.67 223.32 212.41 213.02 206.49"
         id="polygon328" />
      <polygon
         class="cls-11"
         points="235.57 210.94 227.78 215.42 235.61 219.92 236.24 221.17 238.08 221.34 245.87 216.87 235.57 210.94"
         id="polygon330" />
      <polygon
         class="cls-9"
         points="236.24 219.92 225.94 214 233.74 209.52 244.03 215.45 236.24 219.92"
         id="polygon332" />
      <polygon
         class="cls-12"
         points="236.24 219.36 226.43 213.72 225.94 214 236.24 219.92 244.03 215.45 243.54 215.17 236.24 219.36"
         id="polygon334" />
      <polygon
         class="cls-13"
         points="244.03 215.45 244.03 216.7 236.24 221.17 236.24 219.92 244.03 215.45"
         id="polygon336" />
      <polygon
         class="cls-14"
         points="225.94 214 225.94 215.25 236.24 221.17 236.24 219.92 225.94 214"
         id="polygon338" />
      <polygon
         class="cls-11"
         points="106.86 128.12 102.63 130.44 110.45 134.94 111.08 136.19 112.92 136.36 117.15 134.04 106.86 128.12"
         id="polygon340" />
      <polygon
         class="cls-9"
         points="111.08 134.94 100.79 129.02 105.02 126.7 115.31 132.62 111.08 134.94"
         id="polygon342" />
      <polygon
         class="cls-12"
         points="111.08 134.38 101.28 128.74 100.79 129.02 111.08 134.94 115.31 132.62 114.83 132.34 111.08 134.38"
         id="polygon344" />
      <polygon
         class="cls-13"
         points="115.31 132.62 115.31 133.87 111.08 136.19 111.08 134.94 115.31 132.62"
         id="polygon346" />
      <polygon
         class="cls-14"
         points="100.79 129.02 100.79 130.27 111.08 136.19 111.08 134.94 100.79 129.02"
         id="polygon348" />
      <polygon
         class="cls-11"
         points="120.11 135.89 115.89 138.21 123.71 142.72 124.34 143.97 126.18 144.13 130.41 141.81 120.11 135.89"
         id="polygon350" />
      <polygon
         class="cls-9"
         points="124.34 142.72 114.05 136.79 118.28 134.47 128.57 140.4 124.34 142.72"
         id="polygon352" />
      <polygon
         class="cls-12"
         points="124.34 142.16 114.54 136.51 114.05 136.79 124.34 142.72 128.57 140.4 128.09 140.12 124.34 142.16"
         id="polygon354" />
      <polygon
         class="cls-13"
         points="128.57 140.4 128.57 141.65 124.34 143.97 124.34 142.72 128.57 140.4"
         id="polygon356" />
      <polygon
         class="cls-14"
         points="114.05 136.79 114.05 138.04 124.34 143.97 124.34 142.72 114.05 136.79"
         id="polygon358" />
      <polygon
         class="cls-11"
         points="133.37 143.67 129.14 145.99 136.97 150.49 137.6 151.74 139.44 151.91 143.67 149.59 133.37 143.67"
         id="polygon360" />
      <polygon
         class="cls-9"
         points="137.6 150.49 127.31 144.57 131.54 142.25 141.83 148.17 137.6 150.49"
         id="polygon362" />
      <polygon
         class="cls-12"
         points="137.6 149.93 127.8 144.29 127.31 144.57 137.6 150.49 141.83 148.17 141.35 147.89 137.6 149.93"
         id="polygon364" />
      <polygon
         class="cls-13"
         points="141.83 148.17 141.83 149.42 137.6 151.74 137.6 150.49 141.83 148.17"
         id="polygon366" />
      <polygon
         class="cls-14"
         points="127.31 144.57 127.31 145.82 137.6 151.74 137.6 150.49 127.31 144.57"
         id="polygon368" />
      <polygon
         class="cls-11"
         points="146.63 151.44 142.41 153.76 150.23 158.27 150.86 159.52 152.7 159.69 156.93 157.37 146.63 151.44"
         id="polygon370" />
      <polygon
         class="cls-9"
         points="150.86 158.27 140.57 152.34 144.8 150.02 155.09 155.95 150.86 158.27"
         id="polygon372" />
      <polygon
         class="cls-12"
         points="150.86 157.71 141.06 152.06 140.57 152.34 150.86 158.27 155.09 155.95 154.6 155.66 150.86 157.71"
         id="polygon374" />
      <polygon
         class="cls-13"
         points="155.09 155.95 155.09 157.2 150.86 159.52 150.86 158.27 155.09 155.95"
         id="polygon376" />
      <polygon
         class="cls-14"
         points="140.57 152.34 140.57 153.6 150.86 159.52 150.86 158.27 140.57 152.34"
         id="polygon378" />
      <polygon
         class="cls-11"
         points="159.89 159.22 155.66 161.54 163.49 166.04 164.12 167.29 165.96 167.46 170.19 165.14 159.89 159.22"
         id="polygon380" />
      <polygon
         class="cls-9"
         points="164.12 166.04 153.83 160.12 158.06 157.8 168.35 163.72 164.12 166.04"
         id="polygon382" />
      <polygon
         class="cls-12"
         points="164.12 165.48 154.32 159.84 153.83 160.12 164.12 166.04 168.35 163.72 167.87 163.44 164.12 165.48"
         id="polygon384" />
      <polygon
         class="cls-13"
         points="168.35 163.72 168.35 164.97 164.12 167.29 164.12 166.04 168.35 163.72"
         id="polygon386" />
      <polygon
         class="cls-14"
         points="153.83 160.12 153.83 161.37 164.12 167.29 164.12 166.04 153.83 160.12"
         id="polygon388" />
      <polygon
         class="cls-11"
         points="173.15 166.99 168.92 169.31 176.75 173.82 177.38 175.07 179.22 175.24 183.45 172.92 173.15 166.99"
         id="polygon390" />
      <polygon
         class="cls-9"
         points="177.38 173.82 167.09 167.9 171.32 165.57 181.61 171.5 177.38 173.82"
         id="polygon392" />
      <polygon
         class="cls-12"
         points="177.38 173.26 167.58 167.62 167.09 167.9 177.38 173.82 181.61 171.5 181.13 171.22 177.38 173.26"
         id="polygon394" />
      <polygon
         class="cls-13"
         points="181.61 171.5 181.61 172.75 177.38 175.07 177.38 173.82 181.61 171.5"
         id="polygon396" />
      <polygon
         class="cls-14"
         points="167.09 167.9 167.09 169.15 177.38 175.07 177.38 173.82 167.09 167.9"
         id="polygon398" />
      <polygon
         class="cls-11"
         points="186.41 174.77 182.18 177.09 190.01 181.59 190.64 182.84 192.48 183.01 196.71 180.69 186.41 174.77"
         id="polygon400" />
      <polygon
         class="cls-9"
         points="190.64 181.59 180.35 175.67 184.58 173.35 194.87 179.27 190.64 181.59"
         id="polygon402" />
      <polygon
         class="cls-12"
         points="190.64 181.03 180.84 175.39 180.35 175.67 190.64 181.59 194.87 179.27 194.38 178.99 190.64 181.03"
         id="polygon404" />
      <polygon
         class="cls-13"
         points="194.87 179.27 194.87 180.53 190.64 182.84 190.64 181.59 194.87 179.27"
         id="polygon406" />
      <polygon
         class="cls-14"
         points="180.35 175.67 180.35 176.92 190.64 182.84 190.64 181.59 180.35 175.67"
         id="polygon408" />
      <polygon
         class="cls-11"
         points="199.67 182.54 195.44 184.87 203.27 189.37 203.9 190.62 205.74 190.79 209.97 188.47 199.67 182.54"
         id="polygon410" />
      <polygon
         class="cls-9"
         points="203.9 189.37 193.61 183.45 197.84 181.13 208.13 187.05 203.9 189.37"
         id="polygon412" />
      <polygon
         class="cls-12"
         points="203.9 188.81 194.09 183.17 193.61 183.45 203.9 189.37 208.13 187.05 207.64 186.77 203.9 188.81"
         id="polygon414" />
      <polygon
         class="cls-13"
         points="208.13 187.05 208.13 188.3 203.9 190.62 203.9 189.37 208.13 187.05"
         id="polygon416" />
      <polygon
         class="cls-14"
         points="193.61 183.45 193.61 184.7 203.9 190.62 203.9 189.37 193.61 183.45"
         id="polygon418" />
      <polygon
         class="cls-11"
         points="212.93 190.32 208.7 192.64 216.53 197.14 217.16 198.4 219 198.56 223.23 196.24 212.93 190.32"
         id="polygon420" />
      <polygon
         class="cls-9"
         points="217.16 197.15 206.87 191.22 211.1 188.9 221.39 194.82 217.16 197.15"
         id="polygon422" />
      <polygon
         class="cls-12"
         points="217.16 196.58 207.35 190.94 206.87 191.22 217.16 197.14 221.39 194.82 220.91 194.54 217.16 196.58"
         id="polygon424" />
      <polygon
         class="cls-13"
         points="221.39 194.82 221.39 196.08 217.16 198.4 217.16 197.15 221.39 194.82"
         id="polygon426" />
      <polygon
         class="cls-14"
         points="206.87 191.22 206.87 192.47 217.16 198.4 217.16 197.15 206.87 191.22"
         id="polygon428" />
      <polygon
         class="cls-11"
         points="226.19 198.1 221.96 200.42 229.79 204.92 230.42 206.17 232.26 206.34 236.49 204.02 226.19 198.1"
         id="polygon430" />
      <polygon
         class="cls-9"
         points="230.42 204.92 220.13 199 224.36 196.68 234.65 202.6 230.42 204.92"
         id="polygon432" />
      <polygon
         class="cls-12"
         points="230.42 204.36 220.62 198.72 220.13 199 230.42 204.92 234.65 202.6 234.16 202.32 230.42 204.36"
         id="polygon434" />
      <polygon
         class="cls-13"
         points="234.65 202.6 234.65 203.85 230.42 206.17 230.42 204.92 234.65 202.6"
         id="polygon436" />
      <polygon
         class="cls-14"
         points="220.13 199 220.13 200.25 230.42 206.17 230.42 204.92 220.13 199"
         id="polygon438" />
      <polygon
         class="cls-11"
         points="239.45 205.87 235.22 208.19 243.05 212.69 243.68 213.95 245.52 214.11 249.75 211.79 239.45 205.87"
         id="polygon440" />
      <polygon
         class="cls-9"
         points="243.68 212.69 233.39 206.77 237.62 204.45 247.91 210.38 243.68 212.69"
         id="polygon442" />
      <polygon
         class="cls-12"
         points="243.68 212.13 233.88 206.49 233.39 206.77 243.68 212.69 247.91 210.38 247.42 210.09 243.68 212.13"
         id="polygon444" />
      <polygon
         class="cls-13"
         points="247.91 210.38 247.91 211.63 243.68 213.95 243.68 212.69 247.91 210.38"
         id="polygon446" />
      <polygon
         class="cls-14"
         points="233.39 206.77 233.39 208.03 243.68 213.95 243.68 212.69 233.39 206.77"
         id="polygon448" />
      <polygon
         class="cls-11"
         points="252.71 213.65 248.48 215.97 256.31 220.47 256.94 221.72 258.78 221.89 263.01 219.57 252.71 213.65"
         id="polygon450" />
      <polygon
         class="cls-9"
         points="256.94 220.47 246.65 214.55 250.88 212.23 261.17 218.15 256.94 220.47"
         id="polygon452" />
      <polygon
         class="cls-12"
         points="256.94 219.91 247.13 214.27 246.65 214.55 256.94 220.47 261.17 218.15 260.68 217.87 256.94 219.91"
         id="polygon454" />
      <polygon
         class="cls-13"
         points="261.17 218.15 261.17 219.4 256.94 221.72 256.94 220.47 261.17 218.15"
         id="polygon456" />
      <polygon
         class="cls-14"
         points="246.65 214.55 246.65 215.8 256.94 221.72 256.94 220.47 246.65 214.55"
         id="polygon458" />
      <polygon
         class="cls-11"
         points="209.47 195.79 201.68 200.27 209.51 204.77 210.14 206.02 211.97 206.19 219.77 201.72 209.47 195.79"
         id="polygon460" />
      <polygon
         class="cls-9"
         points="210.14 204.77 199.84 198.85 207.63 194.37 217.93 200.3 210.14 204.77"
         id="polygon462" />
      <polygon
         class="cls-12"
         points="210.14 204.21 200.33 198.57 199.84 198.85 210.14 204.77 217.93 200.3 217.44 200.02 210.14 204.21"
         id="polygon464" />
      <polygon
         class="cls-13"
         points="217.93 200.3 217.93 201.55 210.14 206.02 210.14 204.77 217.93 200.3"
         id="polygon466" />
      <polygon
         class="cls-14"
         points="199.84 198.85 199.84 200.1 210.14 206.02 210.14 204.77 199.84 198.85"
         id="polygon468" />
      <polygon
         class="cls-11"
         points="196.18 187.82 188.39 192.3 196.21 196.8 196.85 198.05 198.68 198.22 206.47 193.75 196.18 187.82"
         id="polygon470" />
      <polygon
         class="cls-9"
         points="196.85 196.8 186.55 190.88 194.34 186.41 204.64 192.33 196.85 196.8"
         id="polygon472" />
      <polygon
         class="cls-12"
         points="196.85 196.24 187.04 190.6 186.55 190.88 196.85 196.8 204.64 192.33 204.15 192.05 196.85 196.24"
         id="polygon474" />
      <polygon
         class="cls-13"
         points="204.64 192.33 204.64 193.58 196.85 198.06 196.85 196.8 204.64 192.33"
         id="polygon476" />
      <polygon
         class="cls-14"
         points="186.55 190.88 186.55 192.13 196.85 198.06 196.85 196.8 186.55 190.88"
         id="polygon478" />
      <polygon
         class="cls-11"
         points="182.5 179.98 174.71 184.46 182.54 188.96 183.17 190.21 185.01 190.38 192.8 185.91 182.5 179.98"
         id="polygon480" />
      <polygon
         class="cls-9"
         points="183.17 188.96 172.88 183.04 180.67 178.56 190.96 184.49 183.17 188.96"
         id="polygon482" />
      <polygon
         class="cls-12"
         points="183.17 188.4 173.37 182.76 172.88 183.04 183.17 188.96 190.96 184.49 190.48 184.21 183.17 188.4"
         id="polygon484" />
      <polygon
         class="cls-13"
         points="190.96 184.49 190.96 185.74 183.17 190.21 183.17 188.96 190.96 184.49"
         id="polygon486" />
      <polygon
         class="cls-14"
         points="172.88 183.04 172.88 184.29 183.17 190.21 183.17 188.96 172.88 183.04"
         id="polygon488" />
      <polygon
         class="cls-11"
         points="168.69 171.84 160.9 176.31 168.72 180.81 169.35 182.06 171.19 182.23 178.98 177.76 168.69 171.84"
         id="polygon490" />
      <polygon
         class="cls-9"
         points="169.35 180.81 159.06 174.89 166.85 170.42 177.15 176.34 169.35 180.81"
         id="polygon492" />
      <polygon
         class="cls-12"
         points="169.35 180.25 159.55 174.61 159.06 174.89 169.35 180.81 177.15 176.34 176.66 176.06 169.35 180.25"
         id="polygon494" />
      <polygon
         class="cls-13"
         points="177.15 176.34 177.15 177.59 169.35 182.06 169.35 180.81 177.15 176.34"
         id="polygon496" />
      <polygon
         class="cls-14"
         points="159.06 174.89 159.06 176.14 169.35 182.06 169.35 180.81 159.06 174.89"
         id="polygon498" />
      <polygon
         class="cls-11"
         points="155.2 164.08 147.41 168.55 155.23 173.05 155.87 174.31 157.7 174.47 165.49 170 155.2 164.08"
         id="polygon500" />
      <polygon
         class="cls-9"
         points="155.87 173.05 145.57 167.13 153.36 162.66 163.66 168.58 155.87 173.05"
         id="polygon502" />
      <polygon
         class="cls-12"
         points="155.87 172.49 146.06 166.85 145.57 167.13 155.87 173.05 163.66 168.58 163.17 168.3 155.87 172.49"
         id="polygon504" />
      <polygon
         class="cls-13"
         points="163.66 168.58 163.66 169.83 155.87 174.31 155.87 173.05 163.66 168.58"
         id="polygon506" />
      <polygon
         class="cls-14"
         points="145.57 167.13 145.57 168.38 155.87 174.31 155.87 173.05 145.57 167.13"
         id="polygon508" />
      <polygon
         class="cls-11"
         points="140.64 156.02 132.85 160.49 140.67 164.99 141.31 166.25 143.14 166.41 150.93 161.94 140.64 156.02"
         id="polygon510" />
      <polygon
         class="cls-9"
         points="141.31 164.99 131.01 159.07 138.8 154.6 149.1 160.52 141.31 164.99"
         id="polygon512" />
      <polygon
         class="cls-12"
         points="141.31 164.43 131.5 158.79 131.01 159.07 141.31 164.99 149.1 160.52 148.61 160.24 141.31 164.43"
         id="polygon514" />
      <polygon
         class="cls-13"
         points="149.1 160.52 149.1 161.77 141.31 166.25 141.31 164.99 149.1 160.52"
         id="polygon516" />
      <polygon
         class="cls-14"
         points="131.01 159.07 131.01 160.32 141.31 166.25 141.31 164.99 131.01 159.07"
         id="polygon518" />
      <polygon
         class="cls-11"
         points="126.98 148.06 119.19 152.53 127.02 157.04 127.65 158.29 129.49 158.46 137.28 153.99 126.98 148.06"
         id="polygon520" />
      <polygon
         class="cls-9"
         points="127.65 157.04 117.36 151.12 125.15 146.64 135.44 152.56 127.65 157.04"
         id="polygon522" />
      <polygon
         class="cls-12"
         points="127.65 156.48 117.84 150.84 117.36 151.12 127.65 157.04 135.44 152.56 134.96 152.28 127.65 156.48"
         id="polygon524" />
      <polygon
         class="cls-13"
         points="135.44 152.56 135.44 153.82 127.65 158.29 127.65 157.04 135.44 152.56"
         id="polygon526" />
      <polygon
         class="cls-14"
         points="117.36 151.12 117.36 152.37 127.65 158.29 127.65 157.04 117.36 151.12"
         id="polygon528" />
      <polygon
         class="cls-11"
         points="113.67 140.25 105.87 144.72 113.7 149.23 114.33 150.48 116.17 150.65 123.96 146.18 113.67 140.25"
         id="polygon530" />
      <polygon
         class="cls-9"
         points="114.33 149.23 104.04 143.3 111.83 138.83 122.12 144.75 114.33 149.23"
         id="polygon532" />
      <polygon
         class="cls-12"
         points="114.33 148.67 104.53 143.03 104.04 143.3 114.33 149.23 122.12 144.75 121.64 144.47 114.33 148.67"
         id="polygon534" />
      <polygon
         class="cls-13"
         points="122.12 144.75 122.12 146.01 114.33 150.48 114.33 149.23 122.12 144.75"
         id="polygon536" />
      <polygon
         class="cls-14"
         points="104.04 143.3 104.04 144.56 114.33 150.48 114.33 149.23 104.04 143.3"
         id="polygon538" />
      <polygon
         class="cls-11"
         points="100.51 132.21 92.72 136.69 100.55 141.19 101.18 142.44 103.01 142.61 110.8 138.14 100.51 132.21"
         id="polygon540" />
      <polygon
         class="cls-9"
         points="101.18 141.19 90.88 135.27 98.68 130.79 108.97 136.72 101.18 141.19"
         id="polygon542" />
      <polygon
         class="cls-12"
         points="101.18 140.63 91.37 134.99 90.88 135.27 101.18 141.19 108.97 136.72 108.48 136.44 101.18 140.63"
         id="polygon544" />
      <polygon
         class="cls-13"
         points="108.97 136.72 108.97 137.97 101.18 142.44 101.18 141.19 108.97 136.72"
         id="polygon546" />
      <polygon
         class="cls-14"
         points="90.88 135.27 90.88 136.52 101.18 142.44 101.18 141.19 90.88 135.27"
         id="polygon548" />
      <polygon
         class="cls-11"
         points="249.53 218.9 230.25 229.91 234.91 232.61 235.54 233.86 237.38 234.03 256.66 223.02 249.53 218.9"
         id="polygon550" />
      <polygon
         class="cls-9"
         points="235.54 232.61 228.41 228.49 247.69 217.48 254.83 221.6 235.54 232.61"
         id="polygon552" />
      <polygon
         class="cls-12"
         points="235.54 232.05 228.9 228.21 228.41 228.49 235.54 232.61 254.83 221.6 254.34 221.32 235.54 232.05"
         id="polygon554" />
      <polygon
         class="cls-13"
         points="254.83 221.6 254.83 222.86 235.54 233.86 235.54 232.61 254.83 221.6"
         id="polygon556" />
      <polygon
         class="cls-14"
         points="228.41 228.49 228.41 229.74 235.54 233.86 235.54 232.61 228.41 228.49"
         id="polygon558" />
      <polygon
         class="cls-11"
         points="114.8 181.46 107.01 185.93 150.26 211.41 150.89 212.66 152.73 212.83 160.52 208.36 114.8 181.46"
         id="polygon560" />
      <polygon
         class="cls-9"
         points="150.89 211.41 105.17 184.51 112.97 180.04 158.68 206.94 150.89 211.41"
         id="polygon562" />
      <polygon
         class="cls-12"
         points="150.89 210.85 105.66 184.23 105.17 184.51 150.89 211.41 158.68 206.94 158.19 206.66 150.89 210.85"
         id="polygon564" />
      <polygon
         class="cls-13"
         points="158.68 206.94 158.68 208.19 150.89 212.66 150.89 211.41 158.68 206.94"
         id="polygon566" />
      <polygon
         class="cls-14"
         points="105.17 184.51 105.17 185.76 150.89 212.66 150.89 211.41 105.17 184.51"
         id="polygon568" />
      <path
         class="cls-2"
         d="M193.06,88l1.19.22,2.5.48c-.08.25-.15.52-.22.78a15.74,15.74,0,0,0-.36,2.18l-2.09,25.14-5.43,64.91c-.57,6.7,3,14.45,8.1,17.32l142.63,82.59c.07.05.17.09.26.14L338,286.06l3.14-1.69c1.92-1,3.35-3.17,3.87-6.25.07-.38.1-.78.14-1.17l7.49-89.86,0-.19a20.63,20.63,0,0,0-3.88-13.4,13.94,13.94,0,0,0-4.22-3.92L202,87a6.39,6.39,0,0,0-6-.52v0l-2.14,1.18Z"
         transform="translate(-61.5 -76.03)"
         id="path570" />
      <path
         class="cls-2"
         d="M193.78,87.63l.47.6,2.28,1.26,149.12,85.35,3.13-1.34a13.94,13.94,0,0,0-4.22-3.92L202,87a6.39,6.39,0,0,0-6-.52v0Z"
         transform="translate(-61.5 -76.03)"
         id="path572" />
      <path
         class="cls-2"
         d="M338.25,177.93,343,192l9.67-4.95,0-.19a20.63,20.63,0,0,0-3.88-13.4Z"
         transform="translate(-61.5 -76.03)"
         id="path574" />
      <path
         class="cls-8"
         d="M189,95.45l-2.09,25.14-5.43,64.91c-.57,6.7,3,14.45,8.11,17.32L295.28,263.1l36.91,22.31c4.12,2.35,7.91.69,9.48-3.64a11.62,11.62,0,0,0,.55-2.13c.07-.39.1-.77.14-1.18l7.52-90c.58-6.7-3.07-14.45-8.11-17.32l-52.18-29.92-49.32-29.36h0L199.16,88.5c-3.38-1.91-6.52-1.15-8.41,1.55A11.27,11.27,0,0,0,189,95.45Z"
         transform="translate(-61.5 -76.03)"
         id="path576" />
      <polygon
         class="cls-15"
         points="283.51 106.84 274.39 204.77 124.91 116.71 134.03 18.78 283.51 106.84"
         id="polygon578" />
      <polygon
         class="cls-16"
         points="136.31 20.1 127.43 115.45 274.63 202.17 274.39 204.75 124.89 116.7 134.01 18.77 136.31 20.1"
         id="polygon580" />
      <polygon
         class="cls-4"
         points="274.39 204.77 124.89 116.72 127.43 115.47 274.63 202.19 274.39 204.77"
         id="polygon582" />
      <path
         class="cls-17"
         d="M269.32,134.58a4.13,4.13,0,0,0,1.75,3.75,2,2,0,0,0,1,.29,1.88,1.88,0,0,0,.62-.11,2.21,2.21,0,0,0,1.37-2,4.14,4.14,0,0,0-1.76-3.76,2,2,0,0,0-1-.29,1.82,1.82,0,0,0-.65.12h0A2.23,2.23,0,0,0,269.32,134.58Z"
         transform="translate(-61.5 -76.03)"
         id="path584" />
      <path
         class="cls-18"
         d="M273.57,136.47a2.1,2.1,0,0,1-.1.51v0a1.48,1.48,0,0,1-.89,1.05,1.35,1.35,0,0,1-.43.08,1.52,1.52,0,0,1-.77-.23,3.7,3.7,0,0,1-1.54-3.32,1.71,1.71,0,0,1,.9-1.54l.08,0a1.36,1.36,0,0,1,.44-.08,1.46,1.46,0,0,1,.77.23.44.44,0,0,1,.11.09h0A3.73,3.73,0,0,1,273.57,136.47Z"
         transform="translate(-61.5 -76.03)"
         id="path586" />
      <path
         class="cls-19"
         d="M273.57,136.47a2.1,2.1,0,0,1-.1.51v0a1.14,1.14,0,0,1-.56.46,1.35,1.35,0,0,1-.35.06,1.21,1.21,0,0,1-.64-.19,3.07,3.07,0,0,1-1.29-2.76,1.48,1.48,0,0,1,.76-1.29h.08a.85.85,0,0,1,.35-.08.83.83,0,0,1,.32.05h0A3.73,3.73,0,0,1,273.57,136.47Z"
         transform="translate(-61.5 -76.03)"
         id="path588" />
      <g
         class="cls-1"
         id="g610">
        <path
           class="cls-20"
           d="m 173.78,23.069654 14.8,-8.6 a 3.17,3.17 0 0 1 3.2,0.32 l -14.8,8.6 a 3.17,3.17 0 0 0 -3.2,-0.32 z"
           id="path590" />
        <path
           class="cls-21"
           d="m 241.32049,92.686036 -14.99548,9.023054 c 0.92781,-0.69259 1.60885,-3.512881 1.48937,-4.703238 L 242.41148,90.05 c 0.0577,0.57458 -0.0291,1.143376 -0.23862,1.655989 -0.22456,0.549376 -0.3724,0.621772 -0.85237,0.980047 z"
           id="path592"
           style="stroke-width:1.0248"
           sodipodi:nodetypes="ccccsc" />
        <polygon
           class="cls-21"
           points="228.12,57.9 242.92,49.3 242.81,90.05 228.01,98.65 "
           id="polygon594"
           transform="matrix(0.98658618,0,0,1,2.8584851,0)" />
        <polygon
           class="cls-20"
           points="223.64,50.12 176.99,23.18 191.78,14.58 238.43,41.52 "
           id="polygon596"
           transform="matrix(1.0313765,0,0,1.0313765,-6.7295916,-0.95920885)" />
        <polygon
           class="cls-22"
           points="208.82 24.42 186.71 24.42 186.71 16.45 195.02 16.45 208.82 24.42"
           id="polygon598" />
        <polygon
           class="cls-22"
           points="238.44 41.52 230.08 46.37 224.73 46.37 224.73 38.4 233.03 38.4 238.44 41.52"
           id="polygon600" />
        <path
           class="cls-23"
           d="m 281.13,128.15 18.8,-10.6 c 2.65355,1.72718 3.92208,4.61831 4.09,7.78 l -20.4,12.6 c -0.1631,-3.16312 0.1672,-8.05628 -2.49,-9.78 z"
           transform="translate(-61.5,-76.03)"
           id="path602"
           sodipodi:nodetypes="ccccc" />
        <path
           class="cls-22"
           d="M285.13,126.15a9.88,9.88,0,0,1,4.49,7.78l-.12,40.75c0,2.86-2,4-4.51,2.58l-46.65-26.93a9.88,9.88,0,0,1-4.49-7.78L234,101.8c0-2.87,2-4,4.51-2.58Z"
           transform="translate(-61.5 -76.03)"
           id="path604" />
        <path
           class="cls-24"
           d="M252.91,130.75c0-4.59,3.32-6.38,7.36-3.87,3.79,2.35,6.86,7.83,6.82,12.15,0,2.68-1.2,4.38-3,4.81v14.29c0,.88-.62,1.24-1.39.79l-5.45-3.14a3.06,3.06,0,0,1-1.38-2.39V139.1A15.13,15.13,0,0,1,252.91,130.75Z"
           transform="translate(-61.5 -76.03)"
           id="path606" />
        <path
           class="cls-20"
           d="M256.55,125.76a6.05,6.05,0,0,0-.87,3.39,15.09,15.09,0,0,0,3,8.34v14.29a3.06,3.06,0,0,0,1.38,2.39l4.07,2.35v1.61c0,.88-.62,1.24-1.39.79l-5.45-3.14a3.06,3.06,0,0,1-1.38-2.39v-14.3a15.07,15.07,0,0,1-3-8.34C252.91,127.7,254.38,125.9,256.55,125.76Z"
           transform="translate(-61.5 -76.03)"
           id="path608" />
      </g>
      <g
         class="cls-1"
         id="g624">
        <polygon
           class="cls-23"
           points="192.16,21.25 186.71,24.41 186.72,20.29 192.17,17.12 "
           id="polygon612"
           transform="translate(0,-0.2)" />
        <path
           class="cls-21"
           d="m 191.7,9.16 5.45,-3.17 c -3.07,1.78 -5,5.56 -5,10.93 l -6.39198,3.739569 C 185.78802,15.339569 188.63,10.94 191.7,9.16 Z"
           id="path614"
           sodipodi:nodetypes="ccccc" />
        <polygon
           class="cls-21"
           points="224.74 42.24 230.19 39.07 230.18 43.2 224.73 46.37 224.74 42.24"
           id="polygon616" />
        <path
           class="cls-20"
           d="m 188.92,4.6898008 5.45,-3.17 c 3.81,-2.21999999 9.1,-1.90999997 14.91,1.45 l -5.45,3.17 c -5.82,-3.36 -11.1,-3.67 -14.91,-1.45 z"
           id="path618" />
        <path
           class="cls-23"
           d="m 203.63,6.04 5.45,-3.17 c 11.57,6.68 21,22.92 20.91,36.2 l -5.45,3.17 c 0.04,-13.27 -9.35,-29.53 -20.91,-36.2 z"
           id="path620" />
        <path
           class="cls-22"
           d="m 203.83,5.9401572 c 11.56,6.6699998 20.95,22.9099998 20.91,36.1999998 v 4.13 l -3.93,-2.27 v -4.13 c 0,-10.81 -7.59,-24 -17,-29.44 -9.41,-5.4399998 -17.07,-1.0599998 -17.1,9.75 v 4.13 l -3.92,-2.27 v -4.11 c 0.04,-13.2899998 9.48,-18.66999972 21.04,-11.9899998 z"
           id="path622" />
      </g>
      <path
         class="cls-25"
         d="M189.86,264l-52.48-30.25c-4.11-2.38-3.6-6.53,1.15-9.27l9.37-5.41c4.75-2.74,11.93-3,16-.66l52.48,30.25c4.11,2.38,3.59,6.52-1.16,9.27l-9.36,5.4C201.16,266.06,194,266.35,189.86,264Z"
         transform="translate(-61.5 -76.03)"
         id="path626" />
      <path
         class="cls-24"
         d="M192.45,113.47l-36.52-7.18,6.36,23.54c0,17.85,6.74,38.71,18.49,57.19l17.49,27.52L185,222.18v2.57l9.19-3.85c.67-.28,1.33-.59,2-.92l1.57-.9,14.75-8.48,1.57-.9a26.59,26.59,0,0,0,7.71-7.33c4.67-6.58,7.2-15.71,7.2-26.64V148.47Z"
         transform="translate(-61.5 -76.03)"
         id="path628" />
      <path
         class="cls-26"
         d="M 212.7,157.81 177.89734,121.81519 139.66,115.64 v 27.26 c 0,17.84 6.74,38.7 18.48,57.17 l 18,28.37 18,-7.54 c 11.74,-4.92 18.49,-18 18.49,-35.83 z"
         transform="translate(-61.5,-76.03)"
         id="path630"
         sodipodi:nodetypes="cccsccccc" />
      <path
         class="cls-24"
         d="M206.63,160.77l-30.45-29.19-30.46-6v22.73c0,14.87,5.63,32.27,15.42,47.67l15,23.66,15-6.3c9.79-4.1,15.42-15,15.42-29.87Z"
         transform="translate(-61.5 -76.03)"
         id="path632" />
      <path
         class="cls-12"
         d="M174.76,191.88l-4.2-7.26c-.95-1.62-.95-3.38,0-3.91l26.71-15.24c.94-.53,2.47.35,3.41,2l4.21,7.25c.94,1.62.94,3.38,0,3.92l-26.72,15.23C177.23,194.39,175.7,193.5,174.76,191.88Z"
         transform="translate(-61.5 -76.03)"
         id="path634" />
      <path
         class="cls-12"
         d="M182.36,191.44l-4.2,2.4c-.94.54-2.47-.35-3.41-2l-14-24.08c-.94-1.62-.94-3.38,0-3.91l4.2-2.4c.95-.54,2.48.34,3.42,2l14,24.07C183.31,189.15,183.31,190.9,182.36,191.44Z"
         transform="translate(-61.5 -76.03)"
         id="path636" />
      <path
         class="cls-27"
         d="M164.81,194.64c-9.79-15.41-15.42-32.8-15.42-47.68V126.33l-3.67-.72v22.73c0,14.87,5.63,32.27,15.42,47.67l15,23.66,3.59-1.51Z"
         transform="translate(-61.5 -76.03)"
         id="path638" />
      <polygon
         class="cls-28"
         points="78.16 39.61 114.68 46.77 130.95 37.44 94.43 30.26 78.16 39.61"
         id="polygon640" />
      <polygon
         class="cls-27"
         points="151.2 81.78 167.47 72.44 130.95 37.44 114.68 46.77 151.2 81.78"
         id="polygon642" />
      <path
         class="cls-29"
         d="M380.75,244.72,247.09,167.55c-1.89-1.09-3.62-1.18-5-.46l-4,1.93,1.45,1.71h.05a11,11,0,0,0-.31,2.69v77.74c0,5.7,3.47,12.33,7.75,14.8l133.66,77.17a7.24,7.24,0,0,0,1.28.59l0,2,3.59-2.08c1.77-.88,2.9-3.12,2.9-6.38V259.53C388.5,253.82,385,247.19,380.75,244.72Z"
         transform="translate(-61.5 -76.03)"
         id="path644" />
      <path
         class="cls-8"
         d="M377,345.29,243.33,268.12c-4.28-2.47-7.75-9.1-7.75-14.8V175.58c0-5.71,3.47-8.33,7.75-5.86L377,246.89c4.28,2.47,7.75,9.1,7.75,14.81v77.74C384.74,345.14,381.27,347.76,377,345.29Z"
         transform="translate(-61.5 -76.03)"
         id="path646" />
      <ellipse
         class="cls-12"
         cx="270.2"
         cy="243.21"
         rx="22.15"
         ry="38.37"
         transform="translate(-147.31 93.58) rotate(-30.31)"
         id="ellipse648" />
      <path
         class="cls-30"
         d="M266,216.88s-11.33-4-9.53,19.73a5.16,5.16,0,0,0,2.29,3.72l11.22,6.47Z"
         transform="translate(-61.5 -76.03)"
         id="path650" />
      <path
         class="cls-30"
         d="M274.17,221.62s11.33,9.06,9.53,30.75c-.11,1.29-1.11,1.74-2.29,1.06L270.2,247Z"
         transform="translate(-61.5 -76.03)"
         id="path652" />
      <path
         class="cls-31"
         d="M281,240.51c0,8.34-4.89,12.28-10.93,8.8s-10.94-13.08-10.94-21.43,4.9-12.28,10.94-8.8S281,232.16,281,240.51Z"
         transform="translate(-61.5 -76.03)"
         id="path654" />
      <path
         class="cls-30"
         d="M280.5,235.22l-1.57-.9-.93-2.91v2.37l-2.15-1.24-.8-2.43-.11,1.9-2.57-1.48L271,227.82v1.93l-2.86-1.66-.49-4.36-.44,3.83-.16-.09-.49-1.51-.33,1-2.3-1.33-.44-1.51-.61.9-.15-.09v-3.9l-1.22,3.2-1.94-1.12c0-2.89,1-4.91,2.67-5.84s3.93-.8,6.45.65l2.68,1.55C276.43,222.42,280.5,229.45,280.5,235.22Z"
         transform="translate(-61.5 -76.03)"
         id="path656" />
      <polygon
         class="cls-31"
         points="211.91 180.68 204.94 176.66 204.94 165.73 211.91 169.75 211.91 180.68"
         id="polygon658" />
      <path
         class="cls-32"
         d="M287.85,277.15c-4.75,1.94-10.92,1.18-17.66-2.71s-12.9-10.25-17.65-17.67c.51-7.77,6.37-10.74,13.52-6.61l8.27,4.77C281.49,259.07,287.34,268.8,287.85,277.15Z"
         transform="translate(-61.5 -76.03)"
         id="path660" />
      <polygon
         class="cls-31"
         points="204.94 174.35 208.43 183.95 211.91 178.37 204.94 174.35"
         id="polygon662" />
      <polygon
         class="cls-2"
         points="211.91 178.37 208.43 183.95 204.94 174.35 202.15 178.09 208.43 198.24 214.71 185.34 211.91 178.37"
         id="polygon664" />
      <path
         class="cls-33"
         d="M384.74,260.26v11.26L235.58,185.4V174.14c0-4.9,3.47-6.88,7.75-4.41L377,246.9C381.27,249.37,384.74,255.36,384.74,260.26Z"
         transform="translate(-61.5 -76.03)"
         id="path666" />
      <path
         class="cls-12"
         d="M374.47,283.52l-67-38.66a6.47,6.47,0,0,1-2.71-5.18v-1.21c0-2,1.21-2.92,2.71-2.05l67,38.66a6.48,6.48,0,0,1,2.72,5.18v1.21C377.19,283.47,376,284.39,374.47,283.52Z"
         transform="translate(-61.5 -76.03)"
         id="path668" />
      <path
         class="cls-12"
         d="M374.47,299.31l-67-38.66a6.51,6.51,0,0,1-2.71-5.19v-1.21c0-2,1.21-2.92,2.71-2.05l67,38.66a6.48,6.48,0,0,1,2.72,5.18v1.22C377.19,299.25,376,300.17,374.47,299.31Z"
         transform="translate(-61.5 -76.03)"
         id="path670" />
      <path
         class="cls-12"
         d="M374.47,315.09l-67-38.66a6.5,6.5,0,0,1-2.71-5.18V270c0-2,1.21-2.91,2.71-2l67,38.66a6.51,6.51,0,0,1,2.72,5.18V313C377.19,315,376,316,374.47,315.09Z"
         transform="translate(-61.5 -76.03)"
         id="path672" />
      <path
         class="cls-12"
         d="M374.47,330.87l-67-38.66A6.47,6.47,0,0,1,304.8,287v-1.21c0-2,1.21-2.92,2.71-2.06l67,38.67a6.48,6.48,0,0,1,2.72,5.18v1.21C377.19,330.82,376,331.74,374.47,330.87Z"
         transform="translate(-61.5 -76.03)"
         id="path674" />
      <ellipse
         class="cls-12"
         cx="245.72"
         cy="181.7"
         rx="3.31"
         ry="5.74"
         transform="matrix(0.86, -0.5, 0.5, 0.86, -119.61, 72.81)"
         id="ellipse676" />
      <ellipse
         class="cls-12"
         cx="255.27"
         cy="187.21"
         rx="3.31"
         ry="5.74"
         transform="translate(-121.09 78.39) rotate(-30.31)"
         id="ellipse678" />
      <path
         class="cls-12"
         d="M268.9,195.08c0,2.58-1.82,3.62-4.07,2.32a9,9,0,0,1-4.07-7c0-2.58,1.82-3.61,4.07-2.32A9,9,0,0,1,268.9,195.08Z"
         transform="translate(-61.5 -76.03)"
         id="path680" />
      <path
         class="cls-12"
         d="M278.45,200.6c0,2.58-1.82,3.61-4.06,2.32a9,9,0,0,1-4.07-7c0-2.58,1.82-3.62,4.07-2.32A9,9,0,0,1,278.45,200.6Z"
         transform="translate(-61.5 -76.03)"
         id="path682" />
    </g>
  </g>
</svg>
