<svg xmlns="http://www.w3.org/2000/svg" xmlns:xlink="http://www.w3.org/1999/xlink" width="300" zoomAndPan="magnify" viewBox="0 0 224.87999 149.999998" height="200" preserveAspectRatio="xMidYMid meet" version="1.0"><defs><g/><clipPath id="694a74e568"><path d="M 0 0.0390625 L 224.761719 0.0390625 L 224.761719 149.960938 L 0 149.960938 Z M 0 0.0390625 " clip-rule="nonzero"/></clipPath></defs><g clip-path="url(#694a74e568)"><path fill="#ffffff" d="M 0 0.0390625 L 224.878906 0.0390625 L 224.878906 149.960938 L 0 149.960938 Z M 0 0.0390625 " fill-opacity="1" fill-rule="nonzero"/><path fill="#9757f8" d="M 0 0.0390625 L 224.878906 0.0390625 L 224.878906 149.960938 L 0 149.960938 Z M 0 0.0390625 " fill-opacity="1" fill-rule="nonzero"/></g><g fill="#ffffff" fill-opacity="1"><g transform="translate(14.991999, 105.607264)"><g><path d="M 47.734375 -71.609375 C 49.242188 -71.609375 50.410156 -71.375 51.234375 -70.90625 C 52.054688 -70.4375 52.46875 -69.773438 52.46875 -68.921875 C 52.46875 -68.554688 52.359375 -68.085938 52.140625 -67.515625 C 51.929688 -67.015625 51.628906 -66.566406 51.234375 -66.171875 C 50.835938 -65.773438 50.476562 -65.488281 50.15625 -65.3125 C 49.832031 -65.132812 49.597656 -64.972656 49.453125 -64.828125 C 48.304688 -64.179688 47.375 -63.460938 46.65625 -62.671875 C 45.945312 -61.890625 45.335938 -60.675781 44.828125 -59.03125 L 31.828125 -12.6875 C 31.535156 -11.757812 31.390625 -10.863281 31.390625 -10 C 31.390625 -9.132812 31.515625 -8.414062 31.765625 -7.84375 C 32.015625 -7.269531 32.394531 -6.660156 32.90625 -6.015625 C 33.550781 -5.085938 33.875 -4.335938 33.875 -3.765625 C 33.875 -3.617188 33.800781 -3.257812 33.65625 -2.6875 C 33.363281 -1.6875 32.71875 -0.988281 31.71875 -0.59375 C 30.71875 -0.195312 29.210938 0 27.203125 0 L 1.9375 0 C 0.425781 0 -0.738281 -0.25 -1.5625 -0.75 C -2.382812 -1.25 -2.796875 -1.929688 -2.796875 -2.796875 C -2.796875 -3.222656 -2.6875 -3.6875 -2.46875 -4.1875 C -2.1875 -4.976562 -1.722656 -5.585938 -1.078125 -6.015625 C -0.429688 -6.453125 -0.0351562 -6.707031 0.109375 -6.78125 C 1.253906 -7.488281 2.1875 -8.21875 2.90625 -8.96875 C 3.625 -9.726562 4.234375 -10.96875 4.734375 -12.6875 L 17.84375 -59.03125 C 18.132812 -59.957031 18.28125 -60.851562 18.28125 -61.71875 C 18.28125 -62.5 18.15625 -63.160156 17.90625 -63.703125 C 17.65625 -64.242188 17.3125 -64.867188 16.875 -65.578125 C 16.226562 -66.515625 15.90625 -67.269531 15.90625 -67.84375 C 15.90625 -68.0625 15.976562 -68.457031 16.125 -69.03125 C 16.414062 -69.957031 17.039062 -70.617188 18 -71.015625 C 18.96875 -71.410156 20.457031 -71.609375 22.46875 -71.609375 Z M 47.734375 -71.609375 "/></g></g></g><g fill="#ffffff" fill-opacity="1"><g transform="translate(58.423378, 105.607264)"><g><path d="M 52.46875 -56.875 C 56.269531 -56.875 59.421875 -55.507812 61.921875 -52.78125 C 64.429688 -50.0625 65.6875 -46.335938 65.6875 -41.609375 C 65.6875 -35.234375 63.460938 -28.710938 59.015625 -22.046875 C 54.578125 -15.378906 48.953125 -9.875 42.140625 -5.53125 C 35.335938 -1.195312 28.707031 0.96875 22.25 0.96875 C 16.09375 0.96875 11.09375 -0.285156 7.25 -2.796875 C 3.414062 -5.304688 1.5 -8.890625 1.5 -13.546875 C 1.5 -15.265625 1.820312 -17.203125 2.46875 -19.359375 L 9.25 -42.46875 C 9.394531 -43.039062 9.46875 -43.472656 9.46875 -43.765625 C 9.46875 -44.472656 9.285156 -45.078125 8.921875 -45.578125 C 8.566406 -46.085938 8.066406 -46.628906 7.421875 -47.203125 C 6.347656 -48.128906 5.8125 -48.953125 5.8125 -49.671875 C 5.738281 -50.671875 6.34375 -51.742188 7.625 -52.890625 C 8.914062 -54.046875 10.726562 -55 13.0625 -55.75 C 15.394531 -56.5 18.03125 -56.875 20.96875 -56.875 C 25.769531 -56.875 29.515625 -55.707031 32.203125 -53.375 C 34.890625 -51.050781 36.234375 -48.023438 36.234375 -44.296875 C 36.234375 -42.648438 35.945312 -40.859375 35.375 -38.921875 L 28.390625 -15.90625 C 28.171875 -15.257812 28.0625 -14.722656 28.0625 -14.296875 C 28.0625 -13.367188 28.382812 -12.648438 29.03125 -12.140625 C 29.675781 -11.640625 30.570312 -11.390625 31.71875 -11.390625 C 33.289062 -11.390625 35.132812 -12.085938 37.25 -13.484375 C 39.363281 -14.890625 41.457031 -16.898438 43.53125 -19.515625 C 45.613281 -22.128906 47.300781 -25.226562 48.59375 -28.8125 C 45.726562 -31.320312 43.703125 -33.796875 42.515625 -36.234375 C 41.335938 -38.671875 40.75 -41.179688 40.75 -43.765625 C 40.75 -47.410156 41.75 -50.503906 43.75 -53.046875 C 45.757812 -55.597656 48.664062 -56.875 52.46875 -56.875 Z M 52.46875 -56.875 "/></g></g></g><g fill="#ffffff" fill-opacity="1"><g transform="translate(122.817921, 105.607264)"><g><path d="M 40.203125 -72.25 C 44.222656 -72.25 47.9375 -71.765625 51.34375 -70.796875 C 54.75 -69.828125 58.207031 -68.304688 61.71875 -66.234375 L 64.1875 -68.265625 C 65.90625 -69.628906 67.316406 -70.5625 68.421875 -71.0625 C 69.535156 -71.570312 70.8125 -71.828125 72.25 -71.828125 C 73.96875 -71.828125 75.328125 -71.445312 76.328125 -70.6875 C 77.335938 -69.9375 77.84375 -68.84375 77.84375 -67.40625 C 77.84375 -66.832031 77.734375 -66.222656 77.515625 -65.578125 L 73 -50.75 C 72.5 -49.03125 71.875 -47.8125 71.125 -47.09375 C 70.375 -46.375 69.242188 -46.015625 67.734375 -46.015625 C 66.160156 -46.015625 64.78125 -46.5 63.59375 -47.46875 C 62.414062 -48.4375 60.570312 -50.425781 58.0625 -53.4375 C 55.550781 -56.300781 53.273438 -58.320312 51.234375 -59.5 C 49.191406 -60.6875 47.09375 -61.28125 44.9375 -61.28125 C 43.363281 -61.28125 42.035156 -60.757812 40.953125 -59.71875 C 39.878906 -58.6875 39.34375 -57.414062 39.34375 -55.90625 C 39.34375 -54.1875 40.203125 -52.59375 41.921875 -51.125 C 43.648438 -49.65625 46.34375 -47.8125 50 -45.59375 C 53.71875 -43.363281 56.796875 -41.351562 59.234375 -39.5625 C 61.671875 -37.769531 63.75 -35.546875 65.46875 -32.890625 C 67.195312 -30.242188 68.0625 -27.203125 68.0625 -23.765625 C 68.0625 -21.535156 67.703125 -19.3125 66.984375 -17.09375 C 65.265625 -11.363281 61.929688 -7.007812 56.984375 -4.03125 C 52.035156 -1.050781 46.265625 0.4375 39.671875 0.4375 C 34.722656 0.4375 30.5625 -0.132812 27.1875 -1.28125 C 23.820312 -2.4375 20.382812 -4.375 16.875 -7.09375 L 13.015625 -3.875 C 11.222656 -2.363281 9.75 -1.335938 8.59375 -0.796875 C 7.445312 -0.265625 6.160156 0 4.734375 0 C 3.085938 0 1.78125 -0.390625 0.8125 -1.171875 C -0.15625 -1.960938 -0.640625 -3.039062 -0.640625 -4.40625 C -0.640625 -5.125 -0.5 -5.878906 -0.21875 -6.671875 L 5.046875 -22.6875 C 5.617188 -24.550781 6.40625 -25.875 7.40625 -26.65625 C 8.414062 -27.445312 9.710938 -27.84375 11.296875 -27.84375 C 12.941406 -27.84375 14.425781 -27.269531 15.75 -26.125 C 17.070312 -24.976562 18.8125 -22.898438 20.96875 -19.890625 C 23.257812 -16.585938 25.390625 -14.289062 27.359375 -13 C 29.328125 -11.71875 31.675781 -11.078125 34.40625 -11.078125 C 36.34375 -11.078125 37.828125 -11.378906 38.859375 -11.984375 C 39.898438 -12.597656 40.640625 -13.582031 41.078125 -14.9375 C 41.210938 -15.300781 41.28125 -15.84375 41.28125 -16.5625 C 41.28125 -18.28125 40.457031 -19.851562 38.8125 -21.28125 C 37.164062 -22.71875 34.617188 -24.441406 31.171875 -26.453125 C 27.523438 -28.671875 24.550781 -30.65625 22.25 -32.40625 C 19.957031 -34.164062 17.96875 -36.367188 16.28125 -39.015625 C 14.601562 -41.671875 13.765625 -44.789062 13.765625 -48.375 C 13.765625 -50.882812 14.15625 -53.359375 14.9375 -55.796875 C 16.445312 -60.742188 19.53125 -64.722656 24.1875 -67.734375 C 28.84375 -70.742188 34.179688 -72.25 40.203125 -72.25 Z M 40.203125 -72.25 "/></g></g></g></svg>